<svg width="50" height="48" viewBox="0 0 50 48" fill="none" xmlns="http://www.w3.org/2000/svg">
<path d="M7.92419 0.834595C2.80137 0.834595 0.968262 3.06949 0.968262 7.94117V19.618C0.968262 24.4897 2.80137 26.7247 7.92419 26.7247H42.0759C47.1988 26.7247 49.0317 24.4897 49.0317 19.618V7.94117C49.0317 3.06949 47.1988 0.834595 42.0759 0.834595H7.92419ZM5.01119 19.7437V7.81559C5.01119 5.5807 5.73944 4.60131 7.94926 4.60131H42.0508C44.2857 4.60131 44.9889 5.5807 44.9889 7.81559V19.7437C44.9889 21.9786 44.2857 22.958 42.0508 22.958H7.94926C5.73944 22.958 5.01119 21.9786 5.01119 19.7437ZM6.89455 34.6097C6.89455 33.1281 5.68919 31.8977 4.18255 31.8977C2.6758 31.8977 1.47044 33.1281 1.47044 34.6097C1.47044 36.1164 2.6758 37.2967 4.18255 37.2967C5.68919 37.2967 6.89455 36.1164 6.89455 34.6097ZM48.1528 34.6097C48.1528 33.5048 47.224 32.6762 45.9933 32.6762H12.2183C10.9627 32.6762 10.0587 33.5048 10.0587 34.6097C10.0587 35.7146 10.9627 36.5685 12.2183 36.5685H45.9933C47.224 36.5685 48.1528 35.7146 48.1528 34.6097ZM6.89455 44.4534C6.89455 42.9718 5.68919 41.7163 4.18255 41.7163C2.6758 41.7163 1.47044 42.9718 1.47044 44.4534C1.47044 45.9602 2.6758 47.1655 4.18255 47.1655C5.68919 47.1655 6.89455 45.9602 6.89455 44.4534ZM48.1528 44.4534C48.1528 43.3486 47.224 42.5199 45.9933 42.5199H12.2183C10.9627 42.5199 10.0587 43.3486 10.0587 44.4534C10.0587 45.5584 10.9627 46.4122 12.2183 46.4122H45.9933C47.224 46.4122 48.1528 45.5584 48.1528 44.4534Z" fill="inherit"/>
</svg>
