<svg width="60" height="48" viewBox="0 0 60 48" fill="none" xmlns="http://www.w3.org/2000/svg">
<path d="M8.26581 47.1152H51.7341C56.9824 47.1152 59.6192 44.5036 59.6192 39.3306V8.66934C59.6192 3.49637 56.9824 0.884766 51.7341 0.884766H8.26581C3.04259 0.884766 0.380737 3.47119 0.380737 8.66934V39.3306C0.380737 44.5288 3.04259 47.1152 8.26581 47.1152ZM8.34113 43.0723C5.82992 43.0723 4.42367 41.7413 4.42367 39.1297V8.87023C4.42367 6.25862 5.82992 4.92769 8.34113 4.92769H51.6586C54.1446 4.92769 55.5758 6.25862 55.5758 8.87023V39.1297C55.5758 41.7413 54.1446 43.0723 51.6586 43.0723H46.7872V43.022C44.7027 37.7235 38.8266 32.9271 29.9873 32.9271C21.2233 32.9271 15.3221 37.7235 13.2881 42.9216V43.0723H8.34113ZM29.9873 28.9846C34.5075 29.06 38.0983 25.1676 38.0983 20.0952C38.0983 15.349 34.5075 11.4568 29.9873 11.4568C25.4923 11.4568 21.8511 15.349 21.9013 20.0952C21.9265 25.1676 25.4923 28.9344 29.9873 28.9846Z" fill="inherit"/>
</svg>
