<svg width="28" height="28" viewBox="0 0 28 28" fill="none" xmlns="http://www.w3.org/2000/svg">
<path d="M18.4 22.8L19.9 18.9C20.3 17.8 21.2 16.8 22.3 16.2C25.5 14.5 26 10.1 23.3 7.39999L21 5.09999C18.3 2.39999 13.9 2.89999 12.2 6.09999C11.6 7.19999 10.7 7.99999 9.5 8.49999L5.6 9.99999C0.999995 11.8 -4.76837e-06 17.8 3.6 21.4L7 24.8C10.7 28.4 16.6 27.4 18.4 22.8Z" stroke="inherit" stroke-width="2" stroke-miterlimit="10" stroke-linecap="round" stroke-linejoin="round"/>
<path d="M16.2 15.2C17.8017 15.2 19.1 13.9017 19.1 12.3C19.1 10.6984 17.8017 9.40002 16.2 9.40002C14.5984 9.40002 13.3 10.6984 13.3 12.3C13.3 13.9017 14.5984 15.2 16.2 15.2Z" stroke="inherit" stroke-width="2" stroke-miterlimit="10" stroke-linecap="round" stroke-linejoin="round"/>
<path d="M7.69995 17.1L11.4 20.8" stroke="inherit" stroke-width="2" stroke-miterlimit="10" stroke-linecap="round" stroke-linejoin="round"/>
<path d="M24.2999 1.5L20.8999 4.9L23.5999 7.6L26.9999 4.2" stroke="inherit" stroke-width="2" stroke-miterlimit="10" stroke-linecap="round" stroke-linejoin="round"/>
</svg>
