<svg width="29" height="29" viewBox="0 0 29 29" fill="none" xmlns="http://www.w3.org/2000/svg">
<path d="M10.5 19.4L9 17.9L20.4 6.5" stroke="inherit" stroke-width="2" stroke-miterlimit="10" stroke-linecap="round" stroke-linejoin="round"/>
<path d="M23.3999 8.00001H20.3999V5.00001L24.1999 1.20001L27.1999 4.20001L23.3999 8.00001Z" stroke="inherit" stroke-width="2" stroke-miterlimit="10" stroke-linecap="round" stroke-linejoin="round"/>
<path d="M17.3001 9.59998C15.1001 8.09998 12.2001 8.29998 10.4001 10.1C10.0001 10.5 9.60006 11.1 9.40006 11.6C9.00006 12.5 8.10006 13.1 7.20006 13.2C6.30006 13.3 5.30006 13.4 4.50006 13.8C0.500059 15.9 0.400059 21.3 3.80006 24.7C7.20006 28.1 12.6001 28 14.7001 24C15.1001 23.2 15.2001 22.2 15.3001 21.3C15.4001 20.4 16.0001 19.5 16.9001 19.1C17.1001 19 17.6001 18.8 18.0001 18.7C18.8001 18.5 19.4001 17.8 19.7001 17.1C19.9001 16.5 19.7001 15.8 19.1001 15.5L17.5001 14.6" stroke="inherit" stroke-width="2" stroke-miterlimit="10" stroke-linecap="round" stroke-linejoin="round"/>
<path d="M6 19.4L9 22.4" stroke="inherit" stroke-width="2" stroke-miterlimit="10" stroke-linecap="round" stroke-linejoin="round"/>
</svg>
