<?xml version="1.0" encoding="iso-8859-1"?>
<!-- Uploaded to: SVG Repo, www.svgrepo.com, Generator: SVG Repo Mixer Tools -->
<svg fill="#000000" height="800px" width="800px" version="1.1" id="Capa_1" xmlns="http://www.w3.org/2000/svg" xmlns:xlink="http://www.w3.org/1999/xlink" 
	 viewBox="0 0 491.042 491.042" xml:space="preserve">
<g>
	<path d="M327.408,12.742c-59.2-29.7-131.6-5.7-161.4,53.5l-55.9,111.4c-29.7,59.2-5.7,131.6,53.5,161.4
		c12.5,6.3,25.5,10.1,38.6,11.8c7.9,29,28.6,52,54.8,60.1v38.5h-32.3c-11.4,0-20.8,9.4-20.8,20.8s9.4,20.8,20.8,20.8h104
		c11.4,0,20.8-9.4,20.8-20.8s-9.4-20.8-20.8-20.8h-30.2v-38.7c32.8-10.6,57.4-45.7,58.3-87.2v-101.5l24-47.9
		C410.708,114.942,386.708,42.542,327.408,12.742z M146.808,196.042l55.9-111.4c19.6-39,67.3-54.9,106.3-35.3s54.9,67.3,35.3,106.3
		l-55.9,111.4c-10.2,20.2-27.9,34.2-48,40.3v-110.6c0-11.4-9.4-20.8-20.8-20.8s-20.8,9.4-20.8,20.8v111.8
		c-5.7-1.4-11.3-3.4-16.7-6.1C143.008,282.842,127.208,235.142,146.808,196.042z M277.808,372.542c-13.8,0-25.8-9.7-32.3-24.1
		c27.5-6.6,52.6-22.8,69.8-46.8v22C315.308,350.642,298.608,372.542,277.808,372.542z"/>
</g>
</svg>