<svg width="20" height="20" viewBox="0 0 20 20" fill="none" xmlns="http://www.w3.org/2000/svg">
<path d="M4.92328 17.7051H15.0851C16.8345 17.7051 17.7051 16.8345 17.7051 15.1102V4.88978C17.7051 3.16546 16.8345 2.29492 15.0851 2.29492H4.92328C3.18221 2.29492 2.29492 3.15706 2.29492 4.88978V15.1102C2.29492 16.8429 3.18221 17.7051 4.92328 17.7051ZM4.94839 16.3574C4.11135 16.3574 3.6426 15.9138 3.6426 15.0432V4.95674C3.6426 4.08621 4.11135 3.64256 4.94839 3.64256H15.06C15.8887 3.64256 16.3574 4.08621 16.3574 4.95674V15.0432C16.3574 15.9138 15.8887 16.3574 15.06 16.3574H4.94839ZM7.83621 13.411C8.00364 13.411 8.12081 13.3775 8.24639 13.3189L13.2352 10.7241C13.5784 10.5399 13.7291 10.3306 13.7291 9.98746C13.7291 9.66935 13.5617 9.43499 13.2352 9.25081L8.24639 6.56389C8.11246 6.49692 8.00364 6.46346 7.81946 6.46346C7.43442 6.46346 7.14146 6.74803 7.14146 7.12471C7.14146 7.43442 7.29214 7.63531 7.63531 7.80274L11.8792 9.93721V9.98746L7.63531 12.0717C7.28374 12.2391 7.14146 12.4233 7.14146 12.7414C7.14146 13.1264 7.44281 13.411 7.83621 13.411Z" fill="#E4E4E4"/>
</svg>
