<svg width="54" height="59" viewBox="0 0 54 59" fill="none" xmlns="http://www.w3.org/2000/svg">
<path d="M11.8485 3.23936H41.3181C41.1359 1.10486 39.6774 0 36.8825 0H16.3145C13.5195 0 12.0308 1.10486 11.8485 3.23936ZM6.47116 10.1953H46.4828C46.0271 7.91014 44.7208 6.65454 41.6826 6.65454H11.2713C8.23316 6.65454 6.9268 7.91014 6.47116 10.1953ZM9.53953 58.6858H45.2069C50.6754 58.6858 53.835 56.0742 53.835 50.9012V21.9726C53.835 16.7997 50.6451 14.1881 44.2955 14.1881H9.53953C3.22042 14.1881 0 16.7997 0 21.9726V50.9012C0 56.0994 3.22042 58.6858 9.53953 58.6858ZM23.7579 54.6429H19.8691C18.107 52.6842 20.2641 47.486 23.8795 45.1256C22.2388 44.1211 19.9299 43.5435 17.0133 43.5435C10.6636 43.5435 6.07619 46.808 4.89129 50.2985V22.1986C4.89129 19.587 6.59262 18.231 9.63078 18.231H44.2347C47.2424 18.231 48.9437 19.587 48.9437 22.1986V48.2896C46.7563 45.7533 42.2295 43.5937 36.4267 43.5937C27.7074 43.5937 22.2388 48.5658 22.2388 52.7846C22.2388 54.015 23.1807 54.6429 23.7579 54.6429Z" fill="inherit"/>
<path d="M41.6767 34.4876C41.6767 37.9781 40.042 40.557 36.4267 40.557C32.8113 40.557 31.1767 37.9279 31.1767 34.4876C31.1767 31.0976 32.8113 28.428 36.4267 28.428C40.0116 28.428 41.6767 31.0724 41.6767 34.4876Z" fill="inherit"/>
<path d="M21.2582 35.679C21.2582 38.7426 20.173 40.948 17.0133 40.948C13.8537 40.948 12.5133 38.5875 12.5133 35.549C12.5133 32.5858 13.8537 30.376 17.0133 30.376C20.1425 30.376 21.2582 32.6908 21.2582 35.679Z" fill="inherit"/>
</svg>
