<svg width="60" height="59" viewBox="0 0 60 59" fill="none" xmlns="http://www.w3.org/2000/svg">
<path d="M9.94813 28.5271C9.98414 28.5271 10.0133 28.4979 10.0133 28.4619C10.0133 28.4259 9.98414 28.3967 9.94813 28.3967C9.91212 28.3967 9.88293 28.4259 9.88293 28.4619C9.88293 28.4979 9.91212 28.5271 9.94813 28.5271Z" fill="inherit"/>
<path d="M11.8688 28.4619C11.8688 27.4027 11.0072 26.541 9.94796 26.541C8.88875 26.541 8.02722 27.4027 8.02722 28.4619C8.02722 29.5211 8.88887 30.3826 9.94796 30.3826C11.0071 30.3826 11.8688 29.521 11.8688 28.4619Z" fill="inherit"/>
<path d="M31.5636 9.69069C31.5996 9.69069 31.6288 9.66151 31.6288 9.6255C31.6288 9.58949 31.5996 9.5603 31.5636 9.5603C31.5276 9.5603 31.4984 9.58949 31.4984 9.6255C31.4984 9.66151 31.5276 9.69069 31.5636 9.69069Z" fill="inherit"/>
<path d="M31.5636 11.5463C32.6228 11.5463 33.4844 10.6847 33.4844 9.62545C33.4844 8.56624 32.6228 7.70471 31.5636 7.70471C30.5045 7.70471 29.6428 8.56636 29.6428 9.62545C29.6428 10.6845 30.5045 11.5463 31.5636 11.5463Z" fill="inherit"/>
<path d="M50.0519 42.4121C50.0879 42.4121 50.1171 42.3829 50.1171 42.3469C50.1171 42.3109 50.0879 42.2817 50.0519 42.2817C50.0159 42.2817 49.9867 42.3109 49.9867 42.3469C49.9867 42.3829 50.0159 42.4121 50.0519 42.4121Z" fill="inherit"/>
<path d="M50.0518 40.426C48.9928 40.426 48.1311 41.2877 48.1311 42.3468C48.1311 43.406 48.9928 44.2676 50.0518 44.2676C51.1111 44.2676 51.9727 43.406 51.9727 42.3468C51.9727 41.2878 51.1109 40.426 50.0518 40.426Z" fill="inherit"/>
<path d="M54.8217 33.9422C54.9056 33.1319 54.9481 32.3143 54.9481 31.4985C54.9481 26.7197 53.5191 22.1214 50.8158 18.201C48.4462 14.7648 45.2466 12.0502 41.5045 10.2855C41.5084 10.1732 41.5117 10.0607 41.5117 9.94812C41.5117 4.46276 37.049 0 31.5636 0C26.0782 0 21.6155 4.46264 21.6155 9.94812C21.6155 10.0409 21.6188 10.1333 21.6214 10.2259C17.5391 12.1247 14.0725 15.1746 11.6629 18.9873C11.1053 18.89 10.533 18.8364 9.948 18.8364C4.46264 18.8364 0 23.299 0 28.7844C0 31.0112 0.760949 33.1997 2.1459 34.9507L9.94812 44.7601L11.1791 43.2125C15.3322 50.4204 23.0394 54.948 31.4985 54.948C36.0444 54.948 40.3867 53.6702 44.161 51.2385L50.052 58.6451L57.8574 48.8316C59.2392 47.0844 60.0001 44.896 60.0001 42.6693C60 38.9114 57.9048 35.6341 54.8217 33.9422ZM31.5636 3.71146C35.0025 3.71146 37.8004 6.5092 37.8004 9.94825C37.8004 11.3631 37.3362 12.6979 36.4612 13.8042L31.5636 19.9618L26.6692 13.8082C25.791 12.6979 25.3268 11.363 25.3268 9.94812C25.3268 6.5092 28.1245 3.71146 31.5636 3.71146ZM3.71134 28.7844C3.71134 25.3455 6.50907 22.5476 9.94812 22.5476C13.3872 22.5476 16.1849 25.3454 16.1849 28.7844C16.1849 30.1993 15.7207 31.534 14.8457 32.6404L9.94812 38.798L5.05373 32.6443C4.17551 31.5341 3.71134 30.1993 3.71134 28.7844ZM13.7008 40.0421L17.7536 34.9467C19.1353 33.1995 19.8962 31.0111 19.8962 28.7844C19.8962 25.2304 18.0216 22.1076 15.2104 20.3478C17.0616 17.6492 19.5576 15.4456 22.4598 13.9475C22.7985 14.7183 23.2345 15.4482 23.7614 16.1144L31.5636 25.9238L39.369 16.1103C39.8826 15.4609 40.31 14.7503 40.6449 13.9998C47.1392 17.3812 51.2368 24.0508 51.2368 31.4984C51.2368 31.9288 51.2223 32.3595 51.1946 32.7889C50.8194 32.7458 50.4386 32.7213 50.052 32.7213C44.5666 32.7213 40.1039 37.1839 40.1039 42.6694C40.1039 44.676 40.7237 46.6504 41.8592 48.3027C38.7532 50.2269 35.2066 51.2367 31.4985 51.2367C23.876 51.2368 16.9794 46.8693 13.7008 40.0421ZM54.9495 46.5255L50.0519 52.6831L45.1575 46.5294C44.2794 45.4191 43.8152 44.0844 43.8152 42.6695C43.8152 39.2306 46.6129 36.4327 50.052 36.4327C53.4911 36.4327 56.2887 39.2305 56.2887 42.6695C56.2887 44.0844 55.8245 45.4191 54.9495 46.5255Z" fill="inherit"/>
</svg>
