<svg width="60" height="48" viewBox="0 0 60 48" fill="none" xmlns="http://www.w3.org/2000/svg">
<path d="M23.5588 36.2167C24.5382 36.2167 25.1409 35.7145 25.3418 34.7854L26.4718 29.3865H31.1425L30.113 34.3083C29.8869 35.3378 30.6152 36.2167 31.6448 36.2167C32.6743 36.2167 33.3272 35.7145 33.5031 34.7854L34.633 29.3613H37.2447C38.224 29.3613 38.9272 28.633 38.9272 27.6788C38.9272 26.825 38.3245 26.1972 37.4957 26.1972H35.3111L36.3909 21.0996H39.0527C40.0069 21.0996 40.71 20.3714 40.71 19.4171C40.71 18.5633 40.1073 17.9355 39.2787 17.9355H37.0438L38.0231 13.2397C38.224 12.2101 37.4707 11.3312 36.4411 11.3312C35.4617 11.3312 34.834 11.8334 34.633 12.7877L33.5532 17.9355H28.8825L29.8618 13.2397C30.0627 12.2352 29.3596 11.3312 28.3049 11.3312C27.3004 11.3312 26.6726 11.8334 26.4718 12.7877L25.4171 17.9355H22.7552C21.801 17.9355 21.0978 18.6638 21.0978 19.618C21.0978 20.4719 21.7006 21.0996 22.5293 21.0996H24.7391L23.6593 26.1972H20.9724C20.0181 26.1972 19.2899 26.9255 19.2899 27.8797C19.2899 28.7335 19.8925 29.3613 20.7463 29.3613H23.0064L21.9768 34.3083C21.7758 35.3378 22.5293 36.2167 23.5588 36.2167ZM26.9489 26.4985L28.104 20.8485H33.1514L31.9712 26.4985H26.9489Z" fill="inherit"/>
<path d="M8.26587 47.1152H51.7342C56.9824 47.1152 59.6192 44.5036 59.6192 39.3306V8.66934C59.6192 3.49637 56.9824 0.884766 51.7342 0.884766H8.26587C3.04265 0.884766 0.380798 3.47119 0.380798 8.66934V39.3306C0.380798 44.5288 3.04265 47.1152 8.26587 47.1152ZM8.34119 43.0723C5.82998 43.0723 4.42373 41.7413 4.42373 39.1297V8.87023C4.42373 6.25862 5.82998 4.92769 8.34119 4.92769H51.6586C54.1446 4.92769 55.5759 6.25862 55.5759 8.87023V39.1297C55.5759 41.7413 54.1446 43.0723 51.6586 43.0723H8.34119Z" fill="inherit"/>
</svg>
