<svg width="54" height="58" viewBox="0 0 54 58" fill="none" xmlns="http://www.w3.org/2000/svg">
<path d="M10.602 3.98875H43.4228C43.2722 1.87943 42.0668 0.74939 39.7566 0.74939H14.2683C11.9581 0.74939 10.7526 1.87943 10.602 3.98875ZM5.68013 10.9447H48.37C47.9931 8.65953 46.8883 7.40403 44.3771 7.40403H9.64774C7.13663 7.40403 6.05684 8.65953 5.68013 10.9447ZM7.96527 57.2505H46.0594C51.2829 57.2505 53.9197 54.6389 53.9197 49.466V22.7974C53.9197 17.6244 51.2829 15.0128 46.0594 15.0128H7.96527C2.71688 15.0128 0.0802002 17.5993 0.0802002 22.7974V49.466C0.0802002 54.6389 2.71688 57.2505 7.96527 57.2505ZM8.04059 53.2076C5.52949 53.2076 4.12324 51.8515 4.12324 49.2399V22.9982C4.12324 20.3866 5.52949 19.0557 8.04059 19.0557H45.9843C48.4703 19.0557 49.8763 20.3866 49.8763 22.9982V49.2399C49.8763 51.8515 48.4703 53.2076 45.9843 53.2076H42.8704C40.8112 48.5871 35.4876 43.5396 26.9748 43.5396C18.487 43.5396 13.1382 48.5871 11.1042 53.2076H8.04059ZM26.9748 40.0491C31.2186 40.0742 34.6338 36.207 34.6338 31.6366C34.6338 27.1417 31.2186 23.4755 26.9748 23.4755C22.7308 23.4755 19.3157 27.1417 19.3157 31.6366C19.3408 36.207 22.7308 39.9988 26.9748 40.0491Z" fill="inherit"/>
</svg>
