<svg width="34" height="32" viewBox="0 0 34 32" fill="none" stroke="none" xmlns="http://www.w3.org/2000/svg">
<path d="M15.6831 2.54755C16.2516 1.50514 17.7484 1.50514 18.3169 2.54755L21.2318 7.89237C21.879 9.07915 23.0255 9.9121 24.3542 10.1609L30.3382 11.2815C31.5052 11.5001 31.9678 12.9236 31.152 13.7864L26.9696 18.2103C26.0409 19.1925 25.603 20.5403 25.7769 21.8808L26.5603 27.9182C26.7131 29.0957 25.5022 29.9755 24.4296 29.4663L18.9297 26.8556C17.7085 26.2759 16.2915 26.2759 15.0703 26.8556L9.57045 29.4663C8.49781 29.9755 7.28689 29.0957 7.43968 27.9182L8.22308 21.8808C8.39703 20.5403 7.95912 19.1925 7.03044 18.2103L2.84796 13.7864C2.03225 12.9236 2.49478 11.5001 3.66185 11.2815L9.64583 10.1609C10.9745 9.9121 12.121 9.07915 12.7682 7.89238L15.6831 2.54755Z" fill="inherit" stroke="inherit" stroke-width="3"/>
</svg>
